<?xml version="1.0" standalone="no"?>
<!DOCTYPE svg PUBLIC "-//W3C//DTD SVG 1.1//EN" "http://www.w3.org/Graphics/SVG/1.1/DTD/svg11.dtd" >
<svg xmlns="http://www.w3.org/2000/svg">
<metadata>Generated by IcoMoon</metadata>
<defs>
<font id="FarmVest" horiz-adv-x="1024">
<font-face units-per-em="1024" ascent="960" descent="-64" />
<missing-glyph horiz-adv-x="1024" />
<glyph unicode="&#x20;" horiz-adv-x="512" d="" />
<glyph unicode="&#xe900;" glyph-name="ellipse-filled" d="M1024 448c0-282.77-229.23-512-512-512s-512 229.23-512 512c0 282.77 229.23 512 512 512s512-229.23 512-512z" />
<glyph unicode="&#xe901;" glyph-name="ellipse" d="M512 3.294c-245.605 0-444.706 199.104-444.706 444.706 0 245.605 199.102 444.706 444.706 444.706s444.706-199.102 444.706-444.706c0-245.603-199.104-444.706-444.706-444.706zM512-56c278.351 0 504 225.649 504 504s-225.649 504-504 504c-278.352 0-504-225.648-504-504s225.648-504 504-504z" />
<glyph unicode="&#xe902;" glyph-name="star-filled" horiz-adv-x="1107" d="M553.514 960l124.272-382.47h402.15l-325.347-236.378 124.272-382.467-325.347 236.378-325.347-236.378 124.272 382.467-325.348 236.378h402.151l124.272 382.47z" />
<glyph unicode="&#xe903;" glyph-name="star" horiz-adv-x="1107" d="M678.616 578.395h404.835l-327.518-237.956 125.101-385.021-327.518 237.956-327.518-237.956 125.101 385.021-327.518 237.956h404.835l125.101 385.024 125.101-385.024zM997.706 550.534h-339.335l-104.859 322.724-104.859-322.724h-339.333l274.525-199.453-104.862-322.723 274.524 199.453 274.524-199.453-104.859 322.723 274.524 199.453z" />
<glyph unicode="&#xe904;" glyph-name="money-bag" d="M175.52 99.744c15.393 0 27.872 8.51 27.872 19.008s-12.479 19.008-27.872 19.008c-15.393 0-27.872-8.51-27.872-19.008s12.479-19.008 27.872-19.008zM992 213.297l-10.464 6.144c-0.8 0.463-80.751 47.902-100.625 105.47l-4.431 12.753-8.192-10.703c-0.256-0.337-11.616-14.385-43.407-30.865-23.537 133.969-103.601 293.903-208.817 362.095 30.080-2.432 60.256 0.066 89.376 10.656 17.536 6.368 9.967 34.946-7.729 28.482-23.872-8.689-47.791-11.057-71.663-9.841 58.607 53.713 104.625 136.032 104.625 196.224 0 14.464-0.002 41.392-21.44 41.392-8.61 0-15.569-5.376-25.186-12.8-14.752-11.376-37.022-28.592-69.743-28.592-12.463 0-35.279 13.152-53.617 23.712-22.159 12.752-36.318 20.576-48.224 20.576-19.712 0-48.687-15.936-74.255-30-10.4-5.712-24.623-13.552-27.567-14.304-37.056 0-58.577 17.088-72.849 28.4-8.32 6.624-14.351 11.424-22.4 11.424-21.088 0-21.088-25.296-21.088-54.592 0-56.544 43.072-131.183 99.473-181.344-35.537-2.543-70.577-13.28-95.202-37.137-13.6-13.15 7.008-34.014 20.561-20.894 20.463 19.84 47.296 28.335 76 29.984 0.815-2.929 1.809-5.809 3.023-8.642-120.254-86.415-205.679-291.614-205.679-430.142 0-13.664 1.056-26.033 2.688-37.681-31.008 13.775-42.32 25.856-42.544 26.129l-8.256 9.519-4.064-12c-17.968-52.864-96.080-98.72-96.864-99.185l-11.44-6.639 11.632-6.289c4.080-2.208 8.128-4.143 12.208-6.238l-7.36-5.105 3.888-48.64 304.848-66.624 115.584 73.935c11.663-0.064 23.473-0.094 35.488-0.094l135.104-73.841 305.423 96v51.343l-8.079 4.849c4.032 2.56 8.064 5.167 12.079 7.857l10.705 7.151-2.351 1.152 13.615 3.727 2.304 53.376-7.872 5.585c4.192 2.513 8.367 5.071 12.561 7.727l10.223 6.53zM323.407 868.928c0 7.104 0.098 12.64 0.241 16.944 2.449-1.92 5.297-4.016 8.337-6.176 9.327-22.336 26.976-54.496 56.896-74.752 36.352-24.64 31.518 3.68 50.91 29.536 19.394 25.84 32.512 39.376 64.994-27.088 14.159-28.976 37.76 52 60.19 63.824 5.937-3.232 11.857-6.24 17.666-8.8 40.224-65.408 58.863-45.008 94.592 9.36 9.822 5.76 17.886 11.936 24.303 16.88 0.032-1.488 0.064-3.136 0.064-4.976 0-51.36-41.969-125.024-93.361-173.073-2.426 6.167-5.901 11.868-10.27 16.849-20.753 23.504-53.184-2.56-68.561-19.663-27.279 8.766-71.727 32.911-100.687 19.087-7.213-3.345-13.837-7.836-19.616-13.295-47.362 43.167-85.698 105.487-85.698 155.343zM582.671 693.344c-7.172 1.521-14.306 3.228-21.391 5.12 8.928 7.695 17.12 10.383 20.561-1.056 0.367-1.248 0.591-2.671 0.83-4.064zM461.071 683.407c-5.295 1.009-10.735 1.922-16.335 2.641-4.245 2.662-8.403 5.463-12.463 8.399 14.622 9.809 39.84 4.593 63.936-3.582-11.889-1.201-23.616-3.793-35.138-7.458zM468.337 641.169c-8.96-2.242-18.72-1.346-27.153 2.016 3.424 1.807 6.88 3.375 10.336 4.96 5.6-2.705 11.2-4.96 16.817-6.976zM172.384 57.935c-38.162 11.053-75.191 25.694-110.592 43.729 21.712 14.272 69.008 48.783 88.24 90.257 13.184-10.353 43.616-29.233 102.881-43.729-1.009-1.632-2.242-3.377-3.426-5.088-50.591 13.248-79.359 30.001-79.823 30.289l-6.976 4.16-3.344-7.473c-4.4-9.792-14.72-11.264-20.464-11.264-1.6 0-2.672 0.111-2.816 0.128l-5.712 0.832-2.080-5.472c-4.256-11.168-21.728-25.76-28.128-30.447l-10.688-7.842 12.224-5.007c4.544-1.856 5.776-3.567 5.84-4.015 0.16-1.105-1.776-4.017-3.84-5.696l-9.312-7.505 10.832-5.007c22.192-10.24 47.328-18.72 72.464-25.713-2-1.967-3.728-3.648-5.28-5.137zM301.408 117.553c22.368-3.136 47.151-5.122 74.223-5.122h0.017c5.632 0 11.345 0.096 17.167 0.273 0.388-1.207 0.943-2.355 1.649-3.407 1.423-2.161 3.343-3.953 5.775-5.346l-40.832-34.895c-0.777 0.034-1.555 0.049-2.336 0.049-18.191 0-31.759-6.688-38.272-18.592-24.672 3.147-49.229 7.132-73.63 11.951 19.614 17.455 38.383 35.838 56.239 55.089zM119.824 98.4c1.6 3.023 2.64 6.688 2.080 10.688-0.532 3.61-2.262 6.933-4.912 9.44 7.184 6.159 17.088 15.663 22.528 25.504 12.368 0.177 22.576 4.864 29.008 13.152 10.832-5.664 35.232-17.105 71.28-27.025-14.735-18.479-34.592-39.439-50.032-55.023-24.064 6.368-48.304 14.048-69.952 23.264zM347.84 31.055l-3.281-0.015c-13.775 0-59.422 1.12-119.727 13.679 2.112 1.792 4.305 3.633 6.336 5.393 48.928-10.223 88.384-14.607 91.345-14.944l5.856-0.623 1.807 5.679c3.951 12.256 18.528 14.065 26.88 14.065 2.287 0 3.808-0.145 3.983-0.16l3.106-0.337 70.927 60.608-18.961 0.625c-6.334 0.222-9.007 1.647-9.664 2.624l4.017 10.511-11.104-0.465c-8.096-0.352-16-0.527-23.729-0.527h-0.015c-22.336 0-43.057 1.472-62.208 3.793l4.448 5.248c38.656-5.169 84.943-8.354 140.832-7.953-13.344-18.72-46.624-58.511-110.848-97.201zM508.224 100.576v-29.201c-9.105 0-17.967 0.032-26.639 0.098l-2.609 32.864-21.664-1.76c14.592 17.246 20.815 28.751 21.376 29.792l5.871 11.104-12.399-0.226c-118.688-2.174-196.096 11.968-244.96 27.68-3.569 14.432-5.632 30.754-5.632 49.809 0 129.969 83.055 326.417 193.327 406.033 19.537-18.897 49.169-27.168 77.329-8.785 6.176 4.032 11.552 9.312 16.591 14.927 1.201-0.032 2.434-0.303 3.648-0.303 4.032 0 8.13 0.335 12.209 0.847 5.169-2.063 10.223-4.143 14.912-6.208 22.447-9.888 41.617-3.744 54.705 9.888 101.007-61.12 181.935-222.799 203.232-353.487-46.178-18.464-119.426-36.48-231.84-39.648 22.174 12.672 38.816 33.984 32.832 61.984-6.289 29.6-31.025 37.92-56.642 39.279-0.062 13.905-0.064 27.776 0.032 41.681 7.857-3.473 15.392-7.471 22.24-11.744 12.096-7.599 23.042 12.096 11.025 19.695-10.419 6.551-21.538 11.913-33.152 15.985 0.16 16.096 0.239 32.16 0.239 48.224 0.017 14.72-21.854 14.72-21.854 0 0-14.129-0.096-28.239-0.224-42.336-11.644 2.029-23.531 2.229-35.232 0.591-1.903 10.592-4.209 21.105-6.912 31.522-3.616 14.174-24.738 8.175-21.073-6.050 2.688-10.223 4.881-20.399 6.688-30.72-0.928-0.35-1.937-0.527-2.848-0.943-29.632-11.727-47.712-41.632-26.033-69.519 10.097-12.992 23.298-18.242 37.745-19.985 0.783-19.247 1.28-38.513 1.839-57.743-9.679 6.287-18.496 14.351-26.479 22.878-9.888 10.432-25.329-5.679-15.456-16.096 13.423-14.287 27.52-25.088 42.799-32 0.689-16.431 1.666-32.911 3.266-49.263 1.408-14.513 23.296-14.592 21.871 0-1.348 14.144-2.347 28.318-2.993 42.511 8.32-1.438 17.056-1.807 26.336-0.926 1.041-15.136 2.257-30.272 3.985-45.408 0.992-8.672 9.28-12.081 15.392-10.321l-1.361-31.424c-9.632-0.864-19.456-1.664-29.696-2.336l-12.19-0.8 6.494-10.496c0.657-1.056 8.032-12.719 24.497-29.696h-22.592v0.032zM906.432 205.888c-20.113-9.457-45.551-18.127-71.471-25.696-15.936 16.465-36.322 38.432-51.537 57.92 33.905 10.272 52.881 20.864 61.44 26.575 6.767-5.967 15.729-9.071 26.336-9.056 3.52 0 6.641 0.337 9.039 0.721 7.682-9.952 20.064-21.44 27.81-28.303-3.665-3.761-5.442-7.921-5.297-12.418 0.128-3.84 1.664-7.104 3.68-9.743zM791.951 153.312c3.266-2.88 6.641-5.824 10.080-8.8-64.864-17.199-113.135-19.072-123.648-19.249-67.168 40.977-101.982 84.337-115.407 103.857 56.209 1.408 102.673 6.496 141.425 13.504 1.574-1.935 3.17-3.855 4.783-5.76-31.147-4.851-62.539-7.966-94.033-9.329l-12.911-0.542 7.104-10.865c-0.015-0.017-1.457-2.705-10.993-4.559l-15.503-3.025 76.224-61.713 3.552 0.96c0.081 0.017 6.799 1.826 14.929 1.826 11.727 0 19.744-3.569 23.776-10.545l2.56-4.416 4.975 0.879c27.87 5.082 55.58 11.010 83.087 17.777zM566.4 200.337l-18.208 0.99c-0.847 9.090-1.696 18.176-2.336 27.264 3.2-5.312 9.76-15.296 20.544-28.254zM543.872 258.912c-1.050 21.538-1.685 43.093-1.903 64.655 2.624-0.094 5.216-0.335 7.68-0.687 28.286-4.288 35.68-35.744 13.598-53.44-5.76-4.559-12.399-7.904-19.375-10.528zM710.895 150.88c-7.168 8.849-18.575 13.489-33.327 13.489-6.161 0-11.584-0.832-15.008-1.504l-47.919 38.831c3.983 2.287 6.671 5.184 8.143 8.736 0.363 0.883 0.64 1.801 0.832 2.737 37.984 2.080 69.984 5.871 97.041 10.511 13.12-14.641 32.399-34.833 57.967-58.304-31.409-7.473-57.6-12.591-67.729-14.496zM520.079 322.993c0.305-23.185 0.881-46.432 2.114-69.6-2.065-0.32-4.096-0.721-6.129-0.93-6.88-0.783-13.408-0.207-19.616 1.361-0.785 22.4-1.297 44.847-2.144 67.264 8.608 0.399 17.327 1.248 25.775 1.905zM493.201 343.232c-1.001 17.581-2.656 35.119-4.962 52.576 10.607 1.457 21.391 0.909 31.793-1.615-0.115-16.358-0.141-32.715-0.079-49.073-7.025-0.384-13.696-1.056-19.569-1.583-2.389-0.188-4.787-0.288-7.183-0.305zM471.247 346.031c-1.359 0.369-2.703 0.657-4.094 1.12-6.402 2.172-12.198 5.828-16.913 10.673-13.664 12.751 5.088 25.263 16.913 31.2 1.856-14.24 3.136-28.608 4.094-42.993zM647.84 34.577c-69.455 35.486-106.72 74.927-121.521 93.199 10.641 0.8 20.706 1.76 30.673 2.769l113.888-73.92 249.76 68.608c-128.8-77.632-256.047-89.457-272.8-90.656zM854.112 160.815c-2.048 2.050-4.497 4.48-7.392 7.409 28.416 8.608 55.904 18.592 76.399 29.568l12.465 6.703-12.64 6.432c-2.833 1.457-5.6 4.128-5.647 5.137 0.032 0.384 1.15 2.432 5.999 5.216l9.248 5.312-8.224 6.848c-0.256 0.209-25.903 21.504-34.912 35.217l-2.976 4.478-5.105-1.487c-0.047 0-4.431-1.265-10.127-1.265-8.8-0.015-15.392 2.865-19.616 8.529l-4.672 6.193-5.856-5.041c-0.303-0.256-18.432-15.119-67.057-29.169-1.6 2.308-3.142 4.655-4.623 7.040 58.959 17.873 89.088 39.505 102.144 51.345 20.96-45.344 70.863-81.871 92.529-96.192-34.803-21.060-71.635-38.573-109.937-52.273zM710.080 206.127c-15.953 4.335-33.952 1.376-40.256-6.545-6.257-7.951 1.647-17.967 17.585-22.336 15.968-4.335 33.95-1.359 40.254 6.577 6.257 7.951-1.615 17.935-17.583 22.304z" />
<glyph unicode="&#xe905;" glyph-name="currency" d="M839.439 885.936c26.875 0 48.659-21.786 48.659-48.659v-710.286c0-0.005 0 0.005 0 0 0.005-25.876-8.582-51.035-24.418-71.496-15.835-20.471-38.018-35.099-63.073-41.588-25.047-6.489-51.542-4.48-75.331 5.721-23.783 10.2-43.494 28.007-56.062 50.624 0 0.005 0 0 0 0l-393.429 708.226c-2.095 3.769-5.388 6.751-9.349 8.452s-8.38 2.037-12.557 0.956c-4.177-1.081-7.871-3.521-10.512-6.929s-4.073-7.603-4.071-11.914v-710.316c0-26.875-21.786-48.659-48.659-48.659s-48.659 21.785-48.659 48.659v710.289c0 0.005 0-0.005 0 0-0.004 25.872 8.582 51.032 24.416 71.495 15.836 20.468 38.018 35.098 63.072 41.588s51.548 4.478 75.333-5.721c23.782-10.201 43.496-28.007 56.060-50.627 0.002-0.003-0.002 0.003 0 0l393.431-708.225c2.093-3.771 5.383-6.75 9.346-8.455 3.968-1.698 8.379-2.035 12.555-0.956 4.176 1.084 7.872 3.526 10.516 6.933 2.638 3.412 4.069 7.599 4.069 11.915v710.312c0 26.874 21.785 48.659 48.659 48.659zM12.225 577.766c0 26.874 21.786 48.659 48.659 48.659h908.312c26.875 0 48.659-21.786 48.659-48.659s-21.785-48.659-48.659-48.659h-908.312c-26.874 0-48.659 21.786-48.659 48.659zM12.225 318.236c0 26.869 21.786 48.659 48.659 48.659h908.312c26.875 0 48.659-21.79 48.659-48.659 0-26.875-21.785-48.659-48.659-48.659h-908.312c-26.874 0-48.659 21.785-48.659 48.659z" />
<glyph unicode="&#xe906;" glyph-name="arrow-down" d="M30.066 681.366c16.752 16.752 43.91 16.752 60.663 0l372.899-372.899c27.287-27.288 72.191-27.288 99.478 0l372.897 372.899c16.752 16.752 43.913 16.752 60.665 0s16.752-43.911 0-60.662l-372.899-372.899c-60.791-60.79-160.013-60.79-220.803 0l-372.9 372.899c-16.752 16.751-16.752 43.911 0 60.662z" />
<glyph unicode="&#xe907;" glyph-name="currency-dollar" d="M736 303.52c0 147.68-120.96 164.512-218.144 178.016-105.92 14.72-165.856 27.52-165.856 118.72 0 76.544 80.224 103.744 148.928 103.744 34.237 1.106 68.25-5.942 99.229-20.564s58.038-36.397 78.947-63.532l49.792 40.192c-22.39 28.795-50.253 52.879-81.984 70.87s-66.707 29.532-102.912 33.962v99.072h-64v-96.704c-115.68-7.040-192-72.32-192-167.040 0-151.36 122.56-168.416 221.024-182.080 104.096-14.496 162.976-26.944 162.976-114.656 0-97.024-100.256-111.52-160-111.52-109.76 0-156.096 30.848-199.104 84.096l-49.792-40.192c25.368-33.43 58.179-60.486 95.83-79.024 37.648-18.534 79.101-28.038 121.066-27.76v-97.12h64v97.44c119.232 9.728 192 74.464 192 174.080z" />
<glyph unicode="&#xe908;" glyph-name="private-account" d="M768 374.857c47.762 0 88.43-30.537 103.497-73.143h-359.497v18.286h-256c-13.632 0-26.774-5.074-36.868-14.235s-16.415-21.751-17.733-35.319l-0.256-5.303v-26.149c0-97.792 123.941-174.994 310.857-174.994v18.286h273.225c-65.463-45.458-161.28-73.143-273.225-73.143-211.749 0-365.714 93.879-365.714 229.851v26.149c0 29.098 11.559 57.004 32.135 77.579 20.576 20.577 48.482 32.135 77.58 32.135h512zM877.714 265.143v-26.149c0-9.765-0.841-19.346-2.56-28.709h-363.154v54.857h365.714zM864.146 173.714h-352.146v-54.857h315.758c15.616 16.859 27.904 35.255 36.389 54.857zM729.746 694.857c2.269-18.214 2.269-36.641 0-54.857h-217.746v54.857h217.746zM721.957 731.429c-5.912 19.379-14.491 37.842-25.49 54.857h-184.466v-54.857h209.957zM512 886.857c60.453 0 115.2-24.466 154.88-64h-154.88v9.143c-43.646 0-85.506-17.339-116.37-48.202-30.863-30.864-48.201-72.722-48.201-116.37 0-43.646 17.339-85.506 48.201-116.37 30.864-30.863 72.724-48.201 116.37-48.201v9.143h154.88c-25.549-25.461-56.98-44.231-91.513-54.649s-71.1-12.162-106.469-5.078c-35.366 7.082-68.442 22.775-96.3 45.689-27.856 22.912-49.635 52.339-63.409 85.676-13.773 33.335-19.116 69.553-15.557 105.446 3.56 35.893 15.914 70.356 35.966 100.338 20.054 29.981 47.188 54.557 79.003 71.552s67.328 25.885 103.398 25.883zM696.466 548.571h-184.466v54.857h209.92c-5.925-19.602-14.555-38.034-25.454-54.857z" />
<glyph unicode="&#xe909;" glyph-name="account-balance" d="M277.321 533.332h-85.334v-298.666h85.334v298.666zM533.321 533.332h-85.334v-298.666h85.334v298.666zM895.987 149.332h-810.666v-85.332h810.666v85.332zM789.321 533.332h-85.334v-298.666h85.334v298.666zM490.655 820.906l222.292-116.906h-444.586l222.294 116.906zM490.655 917.333l-405.334-213.333v-85.334h810.666v85.334l-405.332 213.333z" />
<glyph unicode="&#xe90a;" glyph-name="mobile-download" d="M896 160l-45.248 45.248-82.752-82.752v261.504h-64v-261.504l-82.752 82.752-45.248-45.248 160-160 160 160zM320 64v576h384v-160h64v288c-0.016 16.969-6.766 33.237-18.763 45.236-11.999 11.999-28.268 18.747-45.237 18.764h-384c-16.969-0.017-33.238-6.765-45.237-18.764-11.997-11.999-18.747-28.268-18.763-45.236v-704c0.016-16.969 6.766-33.238 18.763-45.237 11.999-11.997 28.268-18.747 45.237-18.763h192v64h-192zM320 768h384v-64h-384v64z" />
<glyph unicode="&#xe90b;" glyph-name="logo-attachment" horiz-adv-x="1229" d="M102.4 960c56.554 0 102.4-45.846 102.4-102.4v-819.2c0-56.556-45.846-102.4-102.4-102.4s-102.4 45.844-102.4 102.4v819.2c0 56.554 45.846 102.4 102.4 102.4zM614.4 857.6c56.556 0 102.4-45.846 102.4-102.4v-614.4c0-56.556-45.844-102.4-102.4-102.4s-102.4 45.844-102.4 102.4v614.4c0 56.554 45.844 102.4 102.4 102.4zM1126.4 755.2c56.556 0 102.4-45.846 102.4-102.4v-409.6c0-56.556-45.844-102.4-102.4-102.4s-102.4 45.844-102.4 102.4v409.6c0 56.554 45.844 102.4 102.4 102.4z" />
<glyph unicode="&#xe90c;" glyph-name="instagram" d="M257.119 912c-124.33 0-225.119-100.789-225.119-225.119v-482.238c0-124.33 100.789-225.117 225.119-225.117h482.238c124.33 0 225.117 100.787 225.117 225.117v482.238c0 124.33-100.787 225.119-225.117 225.119h-482.238zM0 686.881c0 142.003 115.116 257.119 257.119 257.119h482.238c142.003 0 257.117-115.116 257.117-257.119v-482.238c0-142.003-115.114-257.117-257.117-257.117h-482.238c-142.003 0-257.119 115.114-257.119 257.117v482.238zM526.278 622.838c-36.806 5.459-74.394-0.829-107.421-17.965-33.024-17.136-59.808-44.25-76.534-77.485-16.73-33.235-22.552-70.899-16.64-107.635 5.91-36.733 23.254-70.669 49.565-96.979s60.243-43.654 96.979-49.565c36.736-5.91 74.4-0.090 107.635 16.64 33.235 16.726 60.349 43.51 77.485 76.538 17.136 33.024 23.424 70.614 17.965 107.418-5.568 37.542-23.059 72.301-49.898 99.136-26.835 26.838-61.594 44.333-99.136 49.898zM404.122 633.277c38.998 20.238 83.389 27.662 126.851 21.217 44.333-6.574 85.376-27.233 117.069-58.925 31.693-31.69 52.352-72.736 58.925-117.069 6.445-43.462-0.979-87.853-21.216-126.851-20.237-39.002-52.256-70.627-91.501-90.381-39.248-19.757-83.725-26.63-127.107-19.651-43.379 6.979-83.453 27.462-114.522 58.531s-51.551 71.142-58.532 114.525c-6.98 43.379-0.104 87.856 19.65 127.104 19.756 39.245 51.381 71.264 90.383 91.501zM763.469 726.993c-8.838 0-16-7.164-16-16s7.162-16 16-16h0.55c8.838 0 16 7.164 16 16s-7.162 16-16 16h-0.55z" />
<glyph unicode="&#xe90d;" glyph-name="facebook" horiz-adv-x="572" d="M217.723 869.916c47.626 48.023 112.249 75.025 179.655 75.025h143.369c8.318 0 15.059-6.742 15.059-15.059v-192.753c0-8.317-6.74-15.059-15.059-15.059h-143.369c-8.641 0-16.953-3.46-23.1-9.659-6.153-6.204-9.632-14.644-9.632-23.47v-129.506h176.101c4.632 0 9.008-2.132 11.86-5.78 2.855-3.647 3.873-8.406 2.756-12.902l-47.788-192.753c-1.666-6.719-7.695-11.436-14.616-11.436h-128.313v-370.447c0-8.315-6.74-15.059-15.059-15.059h-191.159c-8.317 0-15.059 6.743-15.059 15.059v370.447h-128.311c-8.317 0-15.059 6.743-15.059 15.059v192.753c0 8.315 6.742 15.059 15.059 15.059h128.311v129.506c0 67.855 26.732 132.956 74.353 180.975zM397.378 914.824c-59.338 0-116.273-23.768-158.27-66.115-42.002-42.352-65.62-99.819-65.62-159.767v-144.565c0-8.315-6.742-15.059-15.059-15.059h-128.311v-162.635h128.311c8.317 0 15.059-6.743 15.059-15.059v-370.447h161.041v370.447c0 8.315 6.743 15.059 15.059 15.059h131.59l40.322 162.635h-171.912c-8.315 0-15.059 6.743-15.059 15.059v144.565c0 16.734 6.593 32.807 18.366 44.678 11.776 11.875 27.774 18.569 44.484 18.569h128.31v162.635h-128.31z" />
<glyph unicode="&#xe90e;" glyph-name="twitter" horiz-adv-x="1207" d="M745.073 924.899c48.801 18.685 102.148 21.885 152.825 9.165 46.757-11.736 89.15-36.5 122.342-71.307 53.339 17.321 103.79 42.621 149.643 75.066 6.224 4.404 14.526 4.484 20.835 0.2s9.293-12.032 7.497-19.441c-17.96-73.977-55.285-141.745-108.043-196.34 1.891-12.489 2.864-25.105 2.907-37.746v-0.060c0-311.070-148.663-536.065-359.643-648.712-210.542-112.417-481.273-111.96-724.053 23.34-7.393 4.122-10.993 12.778-8.701 20.923 2.291 8.148 9.875 13.659 18.332 13.323 116.622-4.656 231.798 25.117 331.394 85.266-104.808 52.323-174.659 118.484-219.649 189.744-49.106 77.78-67.902 160.527-71.313 235.803-3.407 75.198 8.512 143.322 21.195 192.518 6.352 24.64 12.927 44.647 17.94 58.559 2.508 6.959 4.629 12.402 6.141 16.146 0.756 1.872 1.361 3.321 1.785 4.323l0.499 1.166 0.199 0.457c0.005 0.012 0.010 0.022 16.728-7.385l14.98 10.487c51.643-73.767 120.666-133.572 200.919-174.092 74.944-37.84 157.511-57.767 241.245-58.336v34.763c-0.673 52.317 14.672 103.588 43.973 146.888 29.327 43.336 71.219 76.6 120.020 95.285zM129.27 832.131c-4.021-11.924-8.672-27.003-13.215-44.623-12.078-46.851-23.27-111.205-20.074-181.733 3.192-70.451 20.713-146.677 65.703-217.932 44.915-71.142 117.898-138.437 233.825-190.124 6.056-2.699 10.178-8.466 10.767-15.071 0.592-6.605-2.439-13.012-7.921-16.742-91.236-62.128-196.689-99.028-305.776-107.67 214.581-95.887 443.248-86.568 623.632 9.746 198.407 105.936 340.283 318.106 340.297 616.414-0.048 13.625-1.353 27.216-3.902 40.599-1.141 5.982 0.772 12.139 5.102 16.422 39.83 39.403 70.597 86.811 90.416 138.893-40.357-23.636-83.401-42.444-128.263-55.996-6.901-2.084-14.384 0.080-19.105 5.526-29.36 33.867-68.374 57.863-111.762 68.752-43.385 10.89-89.059 8.151-130.842-7.848-41.787-15.999-77.678-44.49-102.81-81.628s-38.294-81.132-37.694-126.028l0.004-0.244v-52.991c0-9.914-7.899-18.022-17.81-18.279-95.857-2.493-190.841 18.834-276.489 62.078-75.519 38.131-141.711 92.257-194.082 158.479z" />
<glyph unicode="&#xe90f;" glyph-name="MarketWatch-Logo" horiz-adv-x="7133" d="M1727.149 531.806l-12.27-60.441h-3.068c-15.339 33.806-58.29 80.928-153.392 80.928-153.392 0-309.852-118.83-344.618-306.296-29.657-163.904 49.085-308.344 231.11-308.344 66.468 0 143.166 25.611 183.045 81.952h3.068l-11.25-61.465h169.754l106.351 573.666h-168.73zM1671.927 245.997c-11.246-56.341-64.424-147.512-170.775-147.512-104.307 0-125.779 92.195-116.577 145.464 12.27 65.561 70.561 147.512 169.754 147.512 97.146-1.024 129.868-77.852 117.598-145.464zM1992.054 531.806h159.529l-11.25-60.441h3.068c20.452 27.659 60.335 80.928 158.505 80.928l-31.702-174.147c-80.787-1.024-139.073-17.415-154.412-105.514l-58.29-314.492h-171.799l106.351 573.666zM2417.445 756.147h171.799l-80.787-432.298h3.068l198.384 207.953h201.456l-261.787-252.003 150.323-321.66h-194.295l-110.444 276.586h-3.068l-50.105-276.586h-172.823l148.279 798.007zM3186.434 552.293c-173.843 0-328.259-149.56-356.892-309.368-31.702-170.051 82.831-304.248 247.473-304.248 58.287 0 118.622 17.415 171.799 52.245 54.198 32.782 104.303 81.952 143.162 146.488h-174.864c-28.633-29.707-61.359-53.269-114.533-53.269-66.468 0-116.577 39.954-113.509 108.586h429.494c5.113 13.319 8.181 23.563 12.27 45.074 32.726 175.175-69.537 314.492-244.401 314.492zM3012.59 308.485c13.294 33.806 60.331 98.343 149.299 98.343s110.44-64.537 110.44-98.343h-259.739zM986.818 756.147l-302.694-454.833h-2.044v454.833h-146.234l-535.845-798.007h207.59l300.646 454.833h3.068v-454.833h147.255l300.646 454.833h3.068v-454.833h171.799v798.007h-147.255zM3865.459 531.802h-108.403l31.709 170.051h-150.316l-12.288-65.562c-13.277-74.78-60.31-97.318-122.707-104.49h-1.020l-25.568-130.097h84.89l-81.821-443.565h170.768l81.814 443.565h109.427l23.517 130.097zM6516.065 175.309c-56.249-130.097-190.217-236.636-344.629-236.636-173.833 0-281.212 137.269-250.527 308.344 31.709 168.003 187.145 305.272 358.93 305.272 151.34 0 255.647-101.415 258.719-241.759h-173.833c-11.264 39.95-36.829 80.928-109.427 80.928-80.79 4.096-147.244-62.489-162.604-145.464-15.325-84 27.613-146.488 109.427-146.488 70.55 0 113.523 40.974 138.063 76.828h175.881v-1.024zM5096.695 960l-333.365-203.856h94.067l-301.656-454.834h-3.072v454.834h-147.279l-301.656-454.834h-3.072v454.834h-171.785v-798.008h149.292l301.656 454.833h3.072v-454.833h147.279l533.786 798.008h84.886l-52.153 203.856zM5421.868-41.864h-169.737l11.229 61.465h-3.037c-39.901-56.345-116.595-81.952-183.049-81.952-182.025 0-260.767 143.416-231.142 308.344 33.757 187.466 191.241 306.296 344.629 306.296 94.102 0 138.063-46.098 153.388-80.928h3.072l12.288 60.441h169.737l-107.379-573.666zM5133.489 97.453c106.355 0 159.532 92.199 170.796 147.516 12.253 68.633-20.445 145.464-117.619 145.464-98.163 0-157.484-81.952-169.737-147.512-9.216-53.269 12.253-145.468 116.559-145.468zM5956.714 531.802h-107.379l31.709 170.049h-150.351l-12.253-65.562c-13.312-74.781-60.345-97.319-122.703-104.487h-2.048l-24.541-130.101h84.851l-81.814-443.565h170.796l81.814 443.565h109.427l22.493 130.101zM6677.645 756.144h170.761l-52.153-284.783h3.072c36.829 53.269 85.91 80.928 161.58 80.928 54.201 0 116.559-20.487 145.196-64.537 36.829-56.345 32.733-106.538 13.312-208.981l-58.297-320.636h-170.761l57.238 312.444c5.12 27.659 21.504 120.878-69.526 120.878-96.115 0-112.499-86.051-117.583-114.734l-58.297-317.564h-170.761l146.22 796.984z" />
<glyph unicode="&#xe910;" glyph-name="Forbescom-Logo" horiz-adv-x="3733" d="M2114.933 620.267c0 108.267 1.867 209.067 7.467 302.4l-285.6-54.133v-26.133l28-3.733c20.533-1.867 33.6-9.333 41.067-20.533 7.467-13.067 13.067-31.733 16.8-59.733 3.733-54.133 7.467-177.333 5.6-371.467 0-192.267-1.867-313.6-5.6-360.267 102.667-22.4 182.933-31.733 242.667-31.733 112 0 199.744 31.733 263.211 97.067 63.467 63.467 97.067 153.067 97.067 263.2 0 87.733-24.277 160.533-72.811 218.4s-110.144 85.867-182.933 85.867c-48.533 0-98.923-13.067-154.933-39.2zM2120.533 45.333c-3.733 59.733-7.467 238.933-7.467 532 16.8 5.6 39.211 9.333 67.2 9.333 44.8 0 80.277-22.4 106.411-69.067 26.112-46.667 39.189-102.667 39.189-173.6 0-87.733-14.933-158.667-44.8-218.4-29.867-57.867-67.2-87.733-113.856-87.733-14.955 3.733-29.867 5.6-46.677 7.467zM765.333 904h-746.667v-37.333l39.2-3.733c29.867-5.6 50.4-16.8 63.467-33.6 13.067-18.667 20.533-48.533 22.4-89.6 14.933-201.6 14.933-390.133 0-563.733-3.733-41.067-11.2-70.933-22.4-89.6-13.067-18.667-33.6-29.867-63.467-33.6l-39.2-5.6v-37.333h481.6v37.333l-50.4 3.733c-29.867 3.733-50.4 16.8-63.467 33.6-13.067 18.667-20.533 48.533-22.4 89.6-5.6 74.667-9.333 160.533-9.333 255.733l100.8-1.867c54.133-1.867 91.467-42.933 110.133-125.067h37.333v304.267h-37.333c-18.667-80.267-54.133-121.333-110.133-123.2l-100.8-1.867c0 168 3.733 287.467 9.333 360.267h147.467c104.533 0 175.467-67.2 216.533-201.6l44.8 13.067-7.467 250.133zM677.6 329.067c0-97.067 28-177.333 82.133-240.8s134.4-93.333 235.2-93.333c100.8 0 182.933 31.733 242.667 97.067 59.733 63.467 87.733 143.733 87.733 240.8s-28 177.333-82.133 240.8c-54.133 63.467-134.4 93.333-235.2 93.333s-182.933-31.733-242.667-97.067c-59.733-63.467-87.733-143.733-87.733-240.8zM1093.867 541.867c22.4-54.133 31.733-125.067 31.733-210.933 0-197.867-41.067-294.933-121.333-294.933-41.067 0-72.8 28-95.2 84s-31.733 126.933-31.733 210.933c0 196 41.067 293.067 121.333 293.067 41.067 1.867 72.8-26.133 95.2-82.133zM2671.211 88.267c61.589-61.6 139.989-93.333 233.323-93.333 57.877 0 108.267 11.2 153.067 35.467 44.8 22.4 80.256 50.4 104.533 84l-18.667 22.4c-41.067-31.733-87.723-46.667-141.867-46.667-74.667 0-132.523 24.267-171.733 74.667-41.067 50.4-59.733 113.867-56 196h399.467c0 89.6-22.4 162.4-69.077 220.267-46.656 56-112 84-195.989 84-104.533 0-184.789-33.6-242.667-98.933-57.856-65.333-85.867-145.6-85.867-240.8 0-97.067 29.867-175.467 91.477-237.067zM2809.344 556.8c20.523 44.8 46.656 67.2 82.112 67.2 56 0 84.011-70.933 84.011-214.667l-197.867-3.733c1.877 56 11.2 106.4 31.744 151.2zM3675.456 631.467c-50.389 22.4-113.856 35.467-190.379 35.467-78.4 0-140.011-20.533-186.667-59.733-46.677-39.2-70.955-87.733-70.955-145.6 0-50.4 14.955-89.6 42.944-117.6 28.011-28 72.789-52.267 130.667-72.8 52.267-18.667 89.6-37.333 108.267-54.133 18.667-18.667 29.867-39.2 29.867-67.2 0-26.133-9.344-50.4-29.867-69.067-18.667-20.533-44.8-29.867-78.4-29.867-82.133 0-143.723 59.733-186.667 179.2l-31.723-9.333 7.467-186.667c67.179-26.133 141.845-39.2 224-39.2 85.845 0 151.189 18.667 199.723 57.867 48.533 37.333 72.811 91.467 72.811 158.667 0 44.8-11.2 82.133-35.477 110.133s-63.467 52.267-119.467 74.667c-61.611 22.4-104.533 42.933-126.933 61.6s-33.6 41.067-33.6 69.067c0 28 7.467 50.4 24.256 69.067 16.811 18.667 37.333 26.133 63.467 26.133 74.667 0 128.811-54.133 162.411-160.533l31.723 9.333-7.467 160.533zM1879.733 648.267c-26.133 13.067-54.133 18.667-85.867 18.667s-63.467-13.067-98.933-39.2c-35.467-26.133-61.6-61.6-82.133-110.133l1.867 149.333-283.733-56v-26.133l28-1.867c35.467-3.733 56-31.733 59.733-82.133 11.2-115.733 11.2-238.933 0-369.6-3.733-50.4-24.267-76.533-59.733-82.133l-28-3.733v-35.467h395.733v35.467l-50.4 3.733c-35.467 3.733-56 31.733-59.733 82.133-11.2 108.267-13.067 224-3.733 343.467 11.2 18.667 35.467 29.867 72.8 33.6s80.267-7.467 125.067-33.6l69.067 173.6z" />
<glyph unicode="&#xe911;" glyph-name="Business-Insider-Logo" horiz-adv-x="3258" d="M252.556-52.25h75.793v404.899h-75.793v-404.899zM530.387-46.177h67.884v255.466l285.741-261.539v398.826h-67.696v-251.102l-285.929 257.175v-398.826zM1038.98 51.885c36.948-28.786 81.296-45.425 128.842-45.425 46.309 0 78.796 15.943 78.796 51.15 0 30.685-20.718 42.705-57.001 56.149l-58.742 20.402c-54.155 19.234-95.342 47.324-95.342 111.886 0 69.055 62.349 106.602 136.907 106.602 45.678 0 87.306-11.482 119.825-31.822v-68.485c-33.814 24.991-70.825 42.198-118.369 42.198-40.934 0-71.522-15.278-71.522-47.132 0-28.786 19.201-40.301 53.015-51.878l65.448-22.966c63.425-22.301 92.527-56.877 92.527-113.752 0-71.553-62.95-111.063-145.542-111.063-54.283 0-100.436 15.183-128.842 34.352v69.783zM1490.192-52.25h75.759v404.899h-75.759v-404.899zM1921.378 9.022c85.402 0 131.053 54.788 131.053 141.273 0 87.116-45.67 141.714-131.053 141.714h-84.46v-282.987h84.46zM1767.958 352.649h155.951c120.050 0 197.669-79.081 197.669-202.354 0-123.37-77.619-202.545-197.669-202.545h-155.951v404.899zM2500.478 352.649v-60.639h-183.37v-97.429h164.454v-59.945h-164.492v-125.613h183.408v-61.272h-252.593v404.899h252.593zM2769.417 169.306h75.199c44.497 0 69.595 24.42 69.595 61.969 0 37.547-25.097 62-69.595 62h-75.199v-123.969zM2769.417 112.050v-164.3h-66.895v404.899h143.36c81.734 0 134.628-42.103 134.628-121.374 0-67.791-29.361-106.731-91.899-116.727l142.262-166.798h-76.111l-137.737 164.268-47.607 0.032zM226.081 751.54c29.64 10.851 52.73 43.4 52.73 88.161 0 74.59-52.73 113.246-137.096 113.246h-141.715v-416.383h154.874c84.365 0 137.096 41.375 137.096 119.35 0 44.097-27.678 82.752-65.89 95.627zM66.556 777.985v113.91h74.527c46.816 0 71.839-16.955 71.839-56.275s-25.054-57.635-71.839-57.635h-74.527zM66.556 719.654h86.99c46.184 0 71.205-23.029 71.205-61.021 0-37.294-25.053-61.051-71.174-61.051h-86.99v122.104l-0.032-0.032zM601.181 529.793c96.893 0 162.151 58.331 162.151 172.241v250.912h-68.548v-242.75c0-80.032-32.962-117.358-93.603-117.358-60.639 0-93.569 37.326-93.569 117.358v242.75h-68.548v-250.216c0-114.606 65.892-172.937 162.118-172.937zM924.722 566.425c28.342-20.372 74.495-36.631 128.525-36.631 82.402 0 145.004 42.072 145.004 117.991 0 60.355-28.975 96.986-92.272 120.711l-65.227 24.42c-33.626 12.179-52.732 24.389-52.732 54.915 0 33.91 30.303 50.17 71.174 50.17 47.448 0 84.365-18.284 117.991-44.76v72.597c-32.297 21.668-73.832 33.879-119.32 33.879-74.463 0-136.432-40.015-136.432-113.246 0-68.485 40.871-98.315 94.899-118.655l58.679-21.699c36.251-14.235 56.687-27.142 56.687-59.692 0-37.294-32.297-54.25-78.45-54.25-47.45 0-91.609 17.65-128.525 48.145v-73.894zM1443.185 952.946h-68.517v-416.351h68.517v416.351zM1638.739 537.101h66.050v270.872l277.992-277.325v422.931h-65.871v-266.253l-278.171 272.674v-422.899zM2411.11 952.851v-62.348h-177.953v-100.213h159.576v-61.652h-159.576v-129.156h177.953v-63.013h-245.146v416.383h245.146zM2570.705 566.71c28.337-20.372 74.473-36.631 128.521-36.631 82.367 0 145.017 42.040 145.017 117.991 0 60.355-29.026 96.954-92.29 120.711l-65.257 24.388c-33.624 12.21-52.727 24.421-52.727 54.946 0 33.91 30.31 50.17 71.177 50.17 47.439 0 84.359-18.315 117.983-44.76v72.566c-32.284 21.7-73.821 33.91-119.305 33.91-74.473 0-136.434-40.015-136.434-113.245 0-68.485 40.867-98.315 94.897-118.655l58.666-21.699c36.25-14.235 56.692-27.142 56.692-59.692 0-37.294-32.265-54.25-78.457-54.25-47.439 0-91.601 17.618-128.484 48.145v-73.894zM2984.643 566.71c28.355-20.372 74.51-36.631 128.54-36.631 82.404 0 144.998 42.040 144.998 117.991 0 60.355-29.007 96.954-92.272 120.711l-65.257 24.388c-33.606 12.21-52.727 24.421-52.727 54.946 0 33.91 30.329 50.17 71.159 50.17 47.458 0 84.396-18.315 118.002-44.76v72.566c-32.265 21.7-73.802 33.91-119.287 33.91-74.51 0-136.434-40.015-136.434-113.245 0-68.485 40.867-98.315 94.897-118.655l58.685-21.699c36.25-14.235 56.674-27.142 56.674-59.692 0-37.294-32.284-54.25-78.438-54.25-47.458 0-91.62 17.618-128.54 48.145v-73.894z" />
<glyph unicode="&#xe912;" glyph-name="Fidelity-Management-and-Research-Company-Logo" horiz-adv-x="4513" d="M418.512 392.105h165.369l48.309-31.199h-220.976l-99.172-305.459c-109.578 42.305-210.998 140.411-253.518 250.667-45.353 106.821-45.353 241.036 0.985 348.285 43.444 110.316 147.789 209.895 258.846 250.819 87.38 36.046 204.318 39.85 296.993 11.504 106.347-30.34 206.751-106.297 265.159-205.448 65.274-108.721 83.593-246.862 43.937-370.985-25.062-82.338-76.758-161.181-147.82-217.597l-122.080 202.657 169.927-94.395c0.953 0 1.449 1.045 0.953 2.025l-222.576 191.46 287.85-43.777c0.986 0 1.383 0.458 1.383 0.949l-1.847 1.442-271.438 94.824 282.060 67.889c0.956 0 0.956 0.889 0.463 1.38l-289.327-18.776 226.549 170.906c0.493 0.92-1.479 1.38-1.972 0.43l-254.473-128.571 140.491 246.955c0 0.398 0 1.442-0.892 0.921l-183.567-214.62 35.224 281.988c0 0.523-0.984 0.982-1.94 0.523l-84.424-273.83-73.926 282.020c-0.493 0.461-1.506 0.982-1.97 0l20.352-292.541-174.328 226.063c-0.587 0.523-1.015-0.001-1.508-0.46l131.87-250.176-249.27 135.718c-0.463 0-1.416-0.522-1.416-0.949l221.652-181.397-282.953 29.758c-1.015-0.522-1.015-1.38 0-1.841l274.332-79.976-272.885-79.884c-0.525-0.401-0.525-1.411 0-1.841l281.506 32.671-221.19-187.194c-0.463 0-0.953-0.949 0-1.503l2.956 0.984 177.162 92.431 41.597 65.895h47.262l-32.791 23.099 109.61 175.201-64.658-206.95 0.123-0.099zM1234.708 161.455h-220.823l176.824 628.922h452.665l-43.136-149.246h-231.013l-29.62-107.065h231.013l-38.948-137.374h-230.981l-65.98-235.237zM1745.712 161.455h-218.258l129.437 459.46h218.261l-129.441-459.46zM1887.006 664.753h-218.261l35.531 125.624h218.258l-35.528-125.624zM2312.018 161.457h-214.051l15.204 51.415c-43.164-36.231-87.127-62.367-157.366-62.367-71.090 0-115.886 33.745-115.886 105.408 0 79.209 31.31 197.257 77.841 279.871 33.827 61.539 94.729 93.566 166.652 93.566 61.735 0 107.433-26.997 125.223-60.68l60.937 221.707h218.268l-176.822-628.92zM2147.866 484.368c-19.473 0-38.912-5.95-49.898-32.884-16.106-38.777-30.477-76.725-30.477-114.643 0-17.733 12.705-32.886 33.827-32.886 16.939 0 27.926 5.061 37.228 10.92l44.032 150.934c-7.637 10.983-21.192 18.559-34.712 18.559zM2928.362 362.116h-301.177c-5.97-24.42-11.854-41.323-11.854-60.68 0-9.296 1.701-32.886 32.143-32.886s43.997 11.811 56.684 56.478h214.051c-27.075-130.687-182.741-175.323-278.337-175.323-129.475 0-230.157 18.529-230.157 142.437 0 68.289 34.677 181.274 80.393 241.095 54.984 71.663 150.597 98.597 238.627 98.597 135.342 0 223.301-27.794 223.301-142.405 0-27.856-11.819-89.364-23.673-127.313zM2710.077 516.363c-27.075 0-45.663-18.529-57.518-64.882h89.661c2.551 9.265 5.936 23.59 5.936 32.027 0 25.279-15.239 32.855-38.079 32.855zM3147.741 161.455h-218.286l176.822 628.922h218.286l-176.822-628.922zM3436.145 161.455h-218.32l129.475 459.46h218.286l-129.441-459.46zM3577.405 664.753h-218.251l35.528 125.624h218.286l-35.562-125.624zM3969.857 620.921l19.005-103.69h-167.068l-49.083-174.526c-4.217-13.466-7.637-30.309-7.637-41.291 0-20.216 8.504-26.997 38.096-26.997h46.549l-32.178-112.954h-194.577c-64.321 0-88.862 31.199-88.862 78.442 0 19.328 2.551 40.465 9.337 64.056l118.437 418.964h218.303l-28.793-102.003h118.472zM1009.419 90.82l54.406 0.075-34.668-113.109-54.251-0.024 34.514 113.058zM1199.324 90.719l79.591 0.049 20.412-75.438h0.555l23.030 75.467 47.231 0.050-34.915-112.864-76.14-0.276-22.077 80.589h-0.37l-24.139-80.436-47.262-0.024 34.084 112.883zM1473.307 90.671l59.916 0.024 10.467-71.081 54.807 71.144 55.45 0.073-91.412-112.895-66.506-0.047-22.722 112.782zM1758.26 90.636l123.783 0.097-6.994-22.854-71.159-0.073-6.89-23.193 66.716 0.024-6.682-21.782-66.681-0.024-6.908-22.394 71.906 0.073-7.237-22.886-124.452-0.097 34.601 113.109zM2289.872 63.103l-42.401-0.024 8.4 27.426 139.108 0.123-8.383-27.428-42.366-0.047-25.982-85.101-54.341-0.073 25.964 85.124zM2507.55 90.784l82.423 0.049 4.009-75.467h0.33l49.152 75.498 82.823 0.099-34.399-113.109-50.436-0.050 25.86 85.192h-0.399l-61.232-85.221-52.554-0.073-7.428 85.192h-0.555l-25.826-84.947-46.167-0.026 34.399 112.864zM3072.642 90.718l79.525 0.049 20.48-75.438h0.521l23.031 75.498 47.208 0.024-34.556-113.138-77.13 0.22-21.417 80.375h-0.347l-24.715-80.405-47.243-0.050 34.642 112.864zM3373.872 63.268l-42.435-0.026 8.4 27.457 139.143 0.097-8.366-27.424-42.401-0.049-25.964-85.376-54.393-0.075 26.017 85.395zM2048.798 56.462c-1.198 1.257-1.25 3.405-0.764 5.155 1.788 5.736 8.99 9.509 20.48 9.509 6.769 0.024 17.182-0.736 20.168-3.098 3.159-2.3 4.183-5.767 3.072-9.173h48.18c5.675 20.187-7.081 33.191-61.475 33.162-51.703-0.075-81.017-11.106-88.55-35.739-1.944-6.443-2.187-14.357 3.141-19.696 13.329-13.191 73.433-18.437 78.501-25.555 1.024-1.442 1.423-3.159 0.816-5.184-2.777-9.081-15.672-11.412-26.954-11.412-7.168 0-16.471 1.534-19.144 4.48-2.534 2.975-2.534 7.515-1.076 10.429l-50.436-0.099c-5.085-17.516-7.237-35.738 62.898-35.706 58.802 0.073 85.756 14.418 92.524 36.72 3.35 10.92 0.017 16.964-3.784 20.86-13.052 13.406-71.281 18.345-77.598 25.34zM2837.018 90.605l123.783 0.099-6.96-22.856-71.194-0.047-6.89-23.193 66.716 0.024-6.682-21.782-66.681-0.024-6.908-22.426 71.906 0.050-7.237-22.856-124.459-0.123 34.608 113.133zM4264.526 620.921l-118.437-254.594 3.384 254.594h-220.82l42.296-459.458c-5.415-26.905-14.336-42.059-31.275-49.544-18.536-8.222-60.433-6.779-75.186-5.951l-2.673-0.149-34.799-124.826 148.983-0.148c87.995 0 131.176 44.084 193.762 141.854l318.152 498.235h-223.388zM3620.118 56.728c-1.198 1.288-1.232 3.436-0.764 5.153 1.822 5.767 8.99 9.541 20.48 9.541 6.769 0 17.182-0.765 20.168-3.129 3.193-2.27 4.217-5.766 3.072-9.171h48.18c5.71 20.185-7.081 33.224-61.475 33.162-51.703-0.049-81.017-11.106-88.533-35.741-1.961-6.411-2.204-14.355 3.124-19.663 13.329-13.222 73.433-18.468 78.501-25.586 1.059-1.411 1.423-3.161 0.816-5.184-2.742-9.081-15.69-11.38-26.919-11.412-7.203 0-16.505 1.533-19.178 4.509-2.499 2.975-2.499 7.486-1.076 10.4l-50.436-0.049c-5.085-17.549-7.237-35.771 62.898-35.739 58.819 0.097 85.756 14.418 92.559 36.751 3.332 10.922 0.017 16.965-3.818 20.831-13.052 13.406-71.281 18.345-77.598 25.34zM4298.943 169.908c-21.851 0-39.537 17.639-39.537 39.389s17.686 39.391 39.537 39.391c21.834 0 39.537-17.641 39.537-39.391s-17.703-39.389-39.537-39.389zM4298.943 257.187c-26.503 0-48.059-21.507-48.059-47.89s21.556-47.887 48.059-47.887c26.45 0 48.041 21.504 48.041 47.887s-21.591 47.89-48.041 47.89zM4290.699 212.6v13.836h6.578c5.641 0.123 11.802-0.245 11.802-6.871s-6.161-6.965-11.802-6.965h-6.578zM4318.191 219.195c0 9.541-5.571 14.91-17.512 14.91h-18.658v-49.392h8.678v20.216h6.578l12.409-20.216h9.546l-12.965 20.923c6.804 0.826 11.924 5 11.924 13.558zM4264.196 619.803l-118.072-253.733 3.384 253.733h-220.056l42.158-457.863c-5.398-26.811-14.284-41.904-31.171-49.39-18.467-8.159-60.225-6.718-74.943-5.891l-2.638-0.148-34.695-124.428 148.463-0.123c87.717 0 130.725 43.9 193.102 141.333l317.041 496.517-222.572-0.007z" />
<glyph unicode="&#xe929;" glyph-name="WIRED-UK-Logo-undefined" horiz-adv-x="5149" d="M1790.268 212.342v-117.83h-490.944v117.83h176.345v471.32h-176.345v117.83h490.944v-117.83h-176.345v-471.32h176.345zM956.492 801.49h-135.431l-97.344-559.692h-1.41l-112.859 519.012c-7.054 35.068-18.341 43.485-52.198 43.485h-74.77c-32.449 0-45.147-8.416-52.198-43.485l-112.862-519.012h-2.82l-95.932 559.692h-145.308l139.665-671.913c5.643-29.456 16.929-36.469 49.376-36.469h95.932c32.446 0 43.734 7.013 49.374 37.873l105.808 486.751h2.82l105.808-486.751c7.054-30.86 16.928-37.873 49.374-37.873h94.521c33.859 0 43.734 7.013 49.377 36.469l141.075 671.913zM1029.851-64h-1029.851v1024h1029.851v-1024zM2728.401 275.462c0.518-60.518 4.757-120.949 12.698-180.953h141.075c-4.234 37.873-8.464 100.999-11.287 190.774-2.82 89.776-36.68 120.633-110.039 134.662v2.806c81.826 12.624 117.093 51.902 117.093 176.745 0 103.802-16.928 141.676-45.144 169.731s-57.841 30.86-112.859 30.86h-433.102v-705.578h146.719v274.938h203.15c42.32 0 59.252-2.806 70.536-14.029 11.287-11.22 19.751-23.847 21.162-79.957zM2433.554 484.472v196.383h232.776c32.446 0 42.32-2.805 47.964-8.416 5.644-5.609 19.751-25.25 19.751-86.971s-9.874-81.358-21.162-91.177c-11.287-9.819-15.518-9.819-47.967-9.819h-231.363zM3089.554-64h-1029.851v1024h1029.851v-1024zM4346.529 801.49v-706.981h349.886c100.147 0 155.18 14.029 198.919 51.902 43.71 37.873 74.752 126.247 74.752 300.187s-23.991 256.7-74.752 300.185c-50.79 43.485-97.368 51.901-198.919 51.901h-349.886v2.805zM4824.795 448c0-151.496-12.698-190.771-39.497-211.813-26.829-21.042-46.577-21.042-98.772-21.042h-193.273v465.709h193.273c53.599 0 76.186-2.805 98.772-21.042 22.557-18.236 39.497-60.317 39.497-213.214v1.401zM5149.257-64h-1029.851v1024h1029.851v-1024zM3278.585 683.663v117.83h605.213v-227.243h-126.976v109.412h-245.467v-168.327h194.677v-113.623h-194.677v-189.37h251.114v123.442h128.38v-241.272h-612.264v117.83h95.905v471.32h-95.905z" />
</font>
</defs>
</svg>
